<svg width="33" height="32" viewBox="0 0 33 32" fill="none" xmlns="http://www.w3.org/2000/svg">
<path d="M9.77996 2.66667C10.3373 2.66667 10.788 3.08 10.788 3.58934V5.45334C11.6813 5.43734 12.684 5.43734 13.812 5.43734H19.188C20.316 5.43734 21.3173 5.43734 22.212 5.45334V3.58934C22.212 3.08 22.6626 2.66667 23.22 2.66667C23.7773 2.66667 24.228 3.08 24.228 3.58934V5.53334C26.1613 5.67467 27.432 6.02401 28.3653 6.87734C29.2986 7.73201 29.6786 8.89467 29.8333 10.6667V12H3.16663V10.6667C3.32129 8.89467 3.70129 7.73334 4.63463 6.87734C5.56796 6.02401 6.83729 5.67467 8.77196 5.53334V3.58934C8.77196 3.08 9.22396 2.66667 9.77996 2.66667Z" fill="#08A94C"/>
<path opacity="0.5" d="M29.8332 18.6667V16C29.8332 14.8813 29.8159 12.8867 29.7986 12H3.17457C3.15724 12.8867 3.17457 14.8813 3.17457 16V18.6667C3.17457 23.6947 3.17457 26.2093 4.73457 27.7707C6.29857 29.3333 8.81191 29.3333 13.8386 29.3333H19.1719C24.1986 29.3333 26.7106 29.3333 28.2732 27.7707C29.8332 26.2093 29.8332 23.6947 29.8332 18.6667Z" fill="#08A94C"/>
<path fill-rule="evenodd" clip-rule="evenodd" d="M21.8333 17.6667C22.0985 17.6667 22.3529 17.772 22.5404 17.9596C22.7279 18.1471 22.8333 18.4015 22.8333 18.6667V20.3333H24.5C24.7652 20.3333 25.0195 20.4387 25.2071 20.6262C25.3946 20.8138 25.5 21.0681 25.5 21.3333C25.5 21.5986 25.3946 21.8529 25.2071 22.0404C25.0195 22.228 24.7652 22.3333 24.5 22.3333H22.8333V24C22.8333 24.2652 22.7279 24.5196 22.5404 24.7071C22.3529 24.8946 22.0985 25 21.8333 25C21.5681 25 21.3137 24.8946 21.1262 24.7071C20.9387 24.5196 20.8333 24.2652 20.8333 24V22.3333H19.1666C18.9014 22.3333 18.6471 22.228 18.4595 22.0404C18.272 21.8529 18.1666 21.5986 18.1666 21.3333C18.1666 21.0681 18.272 20.8138 18.4595 20.6262C18.6471 20.4387 18.9014 20.3333 19.1666 20.3333H20.8333V18.6667C20.8333 18.4015 20.9387 18.1471 21.1262 17.9596C21.3137 17.772 21.5681 17.6667 21.8333 17.6667Z" fill="#08A94C"/>
</svg>
