<svg width="7" height="8" viewBox="0 0 7 8" fill="none" xmlns="http://www.w3.org/2000/svg">
<path d="M5.41667 0.666656C5.23333 0.666656 5.08333 0.816657 5.08333 0.99999V1.33332H2.41667V0.99999C2.41667 0.816657 2.26667 0.666656 2.08333 0.666656C1.9 0.666656 1.75 0.816657 1.75 0.99999V1.33332H1.41667C1.04667 1.33332 0.753333 1.63332 0.753333 1.99999L0.75 6.66666C0.75 7.03332 1.04667 7.33332 1.41667 7.33332H6.08333C6.45 7.33332 6.75 7.03332 6.75 6.66666V1.99999C6.75 1.63332 6.45 1.33332 6.08333 1.33332H5.75V0.99999C5.75 0.816657 5.6 0.666656 5.41667 0.666656ZM6.08333 6.66666H1.41667V3.33332H6.08333V6.66666ZM3.41667 4.33332C3.41667 4.14999 3.56667 3.99999 3.75 3.99999C3.93333 3.99999 4.08333 4.14999 4.08333 4.33332C4.08333 4.51666 3.93333 4.66666 3.75 4.66666C3.56667 4.66666 3.41667 4.51666 3.41667 4.33332ZM2.08333 4.33332C2.08333 4.14999 2.23333 3.99999 2.41667 3.99999C2.6 3.99999 2.75 4.14999 2.75 4.33332C2.75 4.51666 2.6 4.66666 2.41667 4.66666C2.23333 4.66666 2.08333 4.51666 2.08333 4.33332ZM4.75 4.33332C4.75 4.14999 4.9 3.99999 5.08333 3.99999C5.26667 3.99999 5.41667 4.14999 5.41667 4.33332C5.41667 4.51666 5.26667 4.66666 5.08333 4.66666C4.9 4.66666 4.75 4.51666 4.75 4.33332ZM3.41667 5.66666C3.41667 5.48332 3.56667 5.33332 3.75 5.33332C3.93333 5.33332 4.08333 5.48332 4.08333 5.66666C4.08333 5.84999 3.93333 5.99999 3.75 5.99999C3.56667 5.99999 3.41667 5.84999 3.41667 5.66666ZM2.08333 5.66666C2.08333 5.48332 2.23333 5.33332 2.41667 5.33332C2.6 5.33332 2.75 5.48332 2.75 5.66666C2.75 5.84999 2.6 5.99999 2.41667 5.99999C2.23333 5.99999 2.08333 5.84999 2.08333 5.66666ZM4.75 5.66666C4.75 5.48332 4.9 5.33332 5.08333 5.33332C5.26667 5.33332 5.41667 5.48332 5.41667 5.66666C5.41667 5.84999 5.26667 5.99999 5.08333 5.99999C4.9 5.99999 4.75 5.84999 4.75 5.66666Z" fill="white"/>
</svg>
