<svg width="33" height="32" viewBox="0 0 33 32" fill="none" xmlns="http://www.w3.org/2000/svg">
<path d="M9.52996 2.66666C10.0873 2.66666 10.538 3.08 10.538 3.58933V5.45333C11.4313 5.43733 12.434 5.43733 13.562 5.43733H18.938C20.066 5.43733 21.0673 5.43733 21.962 5.45333V3.58933C21.962 3.08 22.4126 2.66666 22.97 2.66666C23.5273 2.66666 23.978 3.08 23.978 3.58933V5.53333C25.9113 5.67466 27.182 6.024 28.1153 6.87733C29.0486 7.732 29.4286 8.89466 29.5833 10.6667V12H2.91663V10.6667C3.07129 8.89466 3.45129 7.73333 4.38463 6.87733C5.31796 6.024 6.58729 5.67466 8.52196 5.53333V3.58933C8.52196 3.08 8.97396 2.66666 9.52996 2.66666Z" fill="white"/>
<path opacity="0.5" d="M29.5832 18.6667V16C29.5832 14.8813 29.5659 12.8867 29.5486 12H2.92457C2.90724 12.8867 2.92457 14.8813 2.92457 16V18.6667C2.92457 23.6947 2.92457 26.2093 4.48457 27.7707C6.04857 29.3333 8.56191 29.3333 13.5886 29.3333H18.9219C23.9486 29.3333 26.4606 29.3333 28.0232 27.7707C29.5832 26.2093 29.5832 23.6947 29.5832 18.6667Z" fill="white"/>
<path fill-rule="evenodd" clip-rule="evenodd" d="M21.5833 17.6667C21.8485 17.6667 22.1029 17.772 22.2904 17.9596C22.4779 18.1471 22.5833 18.4014 22.5833 18.6667V20.3333H24.25C24.5152 20.3333 24.7695 20.4387 24.9571 20.6262C25.1446 20.8138 25.25 21.0681 25.25 21.3333C25.25 21.5985 25.1446 21.8529 24.9571 22.0404C24.7695 22.228 24.5152 22.3333 24.25 22.3333H22.5833V24C22.5833 24.2652 22.4779 24.5196 22.2904 24.7071C22.1029 24.8946 21.8485 25 21.5833 25C21.3181 25 21.0637 24.8946 20.8762 24.7071C20.6887 24.5196 20.5833 24.2652 20.5833 24V22.3333H18.9166C18.6514 22.3333 18.3971 22.228 18.2095 22.0404C18.022 21.8529 17.9166 21.5985 17.9166 21.3333C17.9166 21.0681 18.022 20.8138 18.2095 20.6262C18.3971 20.4387 18.6514 20.3333 18.9166 20.3333H20.5833V18.6667C20.5833 18.4014 20.6887 18.1471 20.8762 17.9596C21.0637 17.772 21.3181 17.6667 21.5833 17.6667Z" fill="white"/>
</svg>
