<svg width="24" height="24" viewBox="0 0 24 24" fill="none" xmlns="http://www.w3.org/2000/svg">
<path d="M3.8208 23.5584C2.6784 23.5584 1.74719 22.6272 1.74719 21.4848V2.51038C1.74719 1.36798 2.6784 0.436798 3.8208 0.436798H15.504C16.6464 0.436798 17.5776 1.36798 17.5776 2.51038V21.4848C17.5776 22.6272 16.6464 23.5584 15.504 23.5584H3.8208Z" fill="#E8ECF5"/>
<path d="M15.504 0.854391C16.416 0.854391 17.16 1.59839 17.16 2.51039V21.4848C17.16 22.3968 16.416 23.1408 15.504 23.1408H3.82079C2.90879 23.1408 2.16479 22.3968 2.16479 21.4848V2.51039C2.16479 1.59839 2.90879 0.854391 3.82079 0.854391H15.504ZM15.504 0.0191956H3.82079C2.44319 0.0191956 1.32959 1.13279 1.32959 2.51039V21.4848C1.32959 22.8624 2.44319 23.976 3.82079 23.976H15.504C16.8816 23.976 17.9952 22.8624 17.9952 21.4848V2.51039C17.9952 1.13279 16.8816 0.0191956 15.504 0.0191956Z" fill="#333F47"/>
<path d="M21.4224 12.8352C21.4224 12.8352 21.1824 15.4752 20.5584 17.2992H14.5152C14.2944 16.656 14.1216 15.912 13.9872 15.216C13.7424 13.9296 13.6416 12.8112 13.6416 12.8112C13.6416 9.44639 15.312 7.07999 16.4688 5.84639C17.0544 5.22239 18.048 5.2272 18.6288 5.856C19.7712 7.0992 21.4224 9.47039 21.4224 12.8352Z" fill="#08A94C"/>
<path d="M20.8128 17.6592H14.256L14.1744 17.4144C13.9728 16.8336 13.7952 16.1184 13.6368 15.2832C13.392 13.9968 13.2912 12.888 13.2864 12.8448V12.8112C13.2864 11.2656 13.6272 9.77279 14.2992 8.37599C14.784 7.36799 15.4272 6.4368 16.2096 5.6016C16.5552 5.232 17.0448 5.0208 17.5488 5.0208H17.5536C18.0624 5.0208 18.552 5.23679 18.8928 5.61119C19.6656 6.45119 20.2992 7.38719 20.7792 8.39519C21.4464 9.79679 21.7824 11.2896 21.7824 12.8352V12.8688C21.7728 12.9792 21.528 15.5712 20.8992 17.4192L20.8128 17.6592ZM14.7744 16.9392H20.2944C20.8128 15.264 21.0432 13.0272 21.0624 12.816C21.0576 9.51359 19.368 7.1904 18.36 6.1008C18.1488 5.8704 17.8608 5.7456 17.544 5.7408H17.5392C17.2272 5.7408 16.9392 5.86559 16.728 6.09119C15.7104 7.17599 14.0064 9.49439 13.9968 12.792C14.0112 12.9312 14.1168 13.9776 14.3376 15.1488C14.472 15.84 14.616 16.44 14.7744 16.9392Z" fill="#333F47"/>
<path d="M20.5536 17.2992C20.2224 18.264 19.7855 19.0032 19.2239 19.0032H17.5103V18.984H15.8351C15.2735 18.984 14.8415 18.2544 14.5151 17.2992H20.5536Z" fill="#333F47"/>
<path d="M19.2239 19.3632H17.1503V19.344H15.8351C15.1631 19.344 14.6207 18.7152 14.1743 17.4192L14.0111 16.944H21.0623L20.8991 17.4192C20.4479 18.7248 19.9007 19.3632 19.2239 19.3632ZM17.8703 18.6432H19.2239C19.4735 18.6432 19.7615 18.2832 20.0303 17.6592H15.0335C15.2975 18.2688 15.5855 18.624 15.8303 18.624H17.8655V18.6432H17.8703Z" fill="#333F47"/>
<path d="M15.8352 18.984L14.4096 19.8144C14.1648 19.9584 13.848 19.9056 13.6608 19.6944L13.2768 19.2624C12.744 18.6624 12.6432 17.7936 13.0128 17.0832L13.9824 15.2208C14.1168 15.9168 14.2896 16.6608 14.5104 17.304C14.8416 18.2544 15.2736 18.984 15.8352 18.984Z" fill="#E8ECF5"/>
<path d="M14.112 20.2512C13.8432 20.2512 13.5792 20.1408 13.392 19.9296L13.008 19.4976C12.384 18.7872 12.2592 17.7504 12.696 16.9152L14.1456 14.136L14.3376 15.1536C14.4912 15.9552 14.664 16.6368 14.8512 17.184C15.1632 18.0864 15.528 18.624 15.8304 18.624H17.1648L14.5872 20.1264C14.4432 20.2128 14.2752 20.2512 14.112 20.2512ZM13.8432 16.272L13.3344 17.2464C13.0368 17.8224 13.1232 18.5328 13.5504 19.0224L13.9344 19.4544C14.0112 19.5408 14.136 19.56 14.232 19.5024L15.0672 19.0176C14.7312 18.7104 14.4384 18.1776 14.1744 17.4192C14.0544 17.0784 13.944 16.6944 13.8432 16.272Z" fill="#333F47"/>
<path d="M19.3248 18.984L20.7504 19.8144C20.9952 19.9584 21.312 19.9056 21.4992 19.6944L21.8832 19.2624C22.4112 18.6624 22.5168 17.7936 22.1472 17.0832L21.1776 15.2208C21.0432 15.9168 20.8704 16.6608 20.6496 17.304C20.3136 18.2544 19.8816 18.984 19.3248 18.984Z" fill="#E8ECF5"/>
<path d="M21.048 20.2512C20.8848 20.2512 20.7168 20.208 20.568 20.1216L17.9904 18.6192H19.3248C19.6272 18.6192 19.9968 18.0816 20.304 17.1792C20.4912 16.632 20.664 15.9504 20.8176 15.1488L21.0096 14.1312L22.4592 16.9104C22.896 17.7456 22.7712 18.7872 22.1472 19.4928L21.7632 19.9248C21.5808 20.1408 21.312 20.2512 21.048 20.2512ZM20.0928 19.0176L20.928 19.5024C21.024 19.56 21.1488 19.5408 21.2256 19.4544L21.6096 19.0224C22.0368 18.5376 22.1232 17.8224 21.8256 17.2464L21.312 16.272C21.2112 16.6992 21.1008 17.0832 20.9856 17.4192C20.7216 18.1776 20.4288 18.7056 20.0928 19.0176Z" fill="#333F47"/>
<path d="M17.5343 12.4032C18.3826 12.4032 19.0703 11.7155 19.0703 10.8672C19.0703 10.0189 18.3826 9.33119 17.5343 9.33119C16.686 9.33119 15.9983 10.0189 15.9983 10.8672C15.9983 11.7155 16.686 12.4032 17.5343 12.4032Z" fill="#E8ECF5"/>
<path d="M17.5343 12.7632C16.4879 12.7632 15.6383 11.9136 15.6383 10.8672C15.6383 9.82079 16.4879 8.97119 17.5343 8.97119C18.5807 8.97119 19.4303 9.82079 19.4303 10.8672C19.4303 11.9136 18.5807 12.7632 17.5343 12.7632ZM17.5343 9.69119C16.8863 9.69119 16.3583 10.2192 16.3583 10.8672C16.3583 11.5152 16.8863 12.0432 17.5343 12.0432C18.1823 12.0432 18.7103 11.5152 18.7103 10.8672C18.7103 10.2192 18.1823 9.69119 17.5343 9.69119Z" fill="#333F47"/>
<path d="M9.31203 20.2032H8.79364V15.9264C8.79364 15.7824 8.70724 15.648 8.57284 15.5952C8.43844 15.5376 8.28483 15.5712 8.17923 15.672L7.25284 16.5984C7.11364 16.7376 7.11364 16.968 7.25284 17.1072C7.39204 17.2464 7.62244 17.2464 7.76164 17.1072L8.07364 16.7952V20.2032H7.52164C7.32484 20.2032 7.16164 20.3664 7.16164 20.5632C7.16164 20.76 7.32484 20.9232 7.52164 20.9232H9.31203C9.50883 20.9232 9.67203 20.76 9.67203 20.5632C9.67203 20.3664 9.51363 20.2032 9.31203 20.2032Z" fill="#08A94C"/>
<path d="M6.84964 17.0688C6.84964 16.2288 6.16802 15.5424 5.32322 15.5424H4.16164C3.96484 15.5424 3.80164 15.7056 3.80164 15.9024C3.80164 16.0992 3.96484 16.2624 4.16164 16.2624H5.32322C5.76482 16.2624 6.12964 16.6224 6.12964 17.0688C6.12964 17.5152 5.76962 17.8752 5.32322 17.8752H4.16164C3.96484 17.8752 3.80164 18.0384 3.80164 18.2352C3.80164 18.432 3.96484 18.5952 4.16164 18.5952H5.32322C5.76482 18.5952 6.12964 18.9552 6.12964 19.4016C6.12964 19.848 5.76962 20.208 5.32322 20.208H4.16164C3.96484 20.208 3.80164 20.3712 3.80164 20.568C3.80164 20.7648 3.96484 20.928 4.16164 20.928H5.32322C6.16322 20.928 6.84964 20.2464 6.84964 19.4016C6.84964 18.936 6.63842 18.5184 6.30722 18.24C6.63842 17.9568 6.84964 17.5392 6.84964 17.0688Z" fill="#08A94C"/>
<path d="M11.544 8.63039H4.0416C3.8064 8.63039 3.61438 8.4384 3.61438 8.2032C3.61438 7.968 3.8064 7.776 4.0416 7.776H11.544C11.7792 7.776 11.9712 7.968 11.9712 8.2032C11.9712 8.4384 11.784 8.63039 11.544 8.63039Z" fill="#333F47"/>
<path d="M9.71999 11.1264H4.0416C3.8064 11.1264 3.61438 10.9344 3.61438 10.6992C3.61438 10.464 3.8064 10.272 4.0416 10.272H9.71999C9.95519 10.272 10.1472 10.464 10.1472 10.6992C10.1472 10.9344 9.95999 11.1264 9.71999 11.1264Z" fill="#333F47"/>
<path d="M15.4031 3.3312H4.04634C3.81114 3.3312 3.61914 3.1392 3.61914 2.904C3.61914 2.6688 3.81114 2.47681 4.04634 2.47681H15.4031C15.6383 2.47681 15.8303 2.6688 15.8303 2.904C15.8303 3.1392 15.6383 3.3312 15.4031 3.3312Z" fill="#333F47"/>
<path d="M13.32 5.904H4.0416C3.8064 5.904 3.61438 5.712 3.61438 5.4768C3.61438 5.2416 3.8064 5.04961 4.0416 5.04961H13.32C13.5552 5.04961 13.7472 5.2416 13.7472 5.4768C13.7472 5.712 13.56 5.904 13.32 5.904Z" fill="#333F47"/>
</svg>
