<svg width="24" height="24" viewBox="0 0 24 24" fill="none" xmlns="http://www.w3.org/2000/svg">
<g clip-path="url(#clip0_1_10866)">
<path d="M2.33284 23.5152C1.19044 23.5152 0.259277 22.584 0.259277 21.4416V2.4672C0.259277 1.3248 1.19044 0.393598 2.33284 0.393598H14.0161C15.1585 0.393598 16.0897 1.3248 16.0897 2.4672V21.4416C16.0897 22.584 15.1585 23.5152 14.0161 23.5152H2.33284Z" fill="#E8ECF5"/>
<path d="M20.9589 21.6872C23.3583 19.2878 23.3583 15.3977 20.9589 12.9983C18.5596 10.599 14.6694 10.599 12.2701 12.9983C9.87072 15.3977 9.87072 19.2878 12.2701 21.6872C14.6694 24.0865 18.5596 24.0865 20.9589 21.6872Z" fill="#08A94C"/>
<path d="M18.4782 22.5468C20.9445 21.5251 22.1157 18.6975 21.0941 16.2312C20.0725 13.7648 17.2449 12.5936 14.7785 13.6152C12.3121 14.6369 11.1409 17.4644 12.1626 19.9308C13.1842 22.3972 16.0118 23.5684 18.4782 22.5468Z" fill="#333F47"/>
<path d="M13.5407 16.3248C13.4879 16.3248 13.4352 16.3104 13.392 16.2816C13.2624 16.2 13.2288 16.0272 13.3104 15.8976C14.0496 14.76 15.3023 14.0784 16.6607 14.0784C16.8143 14.0784 16.9392 14.2032 16.9392 14.3568C16.9392 14.5104 16.8143 14.6352 16.6607 14.6352C15.4895 14.6352 14.4144 15.2208 13.776 16.2048C13.7184 16.2768 13.6319 16.3248 13.5407 16.3248Z" fill="#E8ECF5"/>
<path d="M12.9407 18.3456C12.7871 18.3456 12.6624 18.2208 12.6624 18.0672C12.6624 17.5632 12.7536 17.0736 12.936 16.6128C12.9936 16.4688 13.152 16.4016 13.296 16.4544C13.44 16.512 13.5072 16.6704 13.4544 16.8144C13.296 17.2128 13.2192 17.6352 13.2192 18.0672C13.2192 18.2208 13.0943 18.3456 12.9407 18.3456Z" fill="#E8ECF5"/>
<path d="M12.8064 23.5056C12.3552 23.5056 11.9856 23.136 11.9856 22.6848C11.9856 22.2336 12.3552 21.864 12.8064 21.864H20.4816C20.9328 21.864 21.3024 22.2336 21.3024 22.6848C21.3024 23.136 20.9328 23.5056 20.4816 23.5056H12.8064Z" fill="#08A94C"/>
<path d="M13.92 3.1152H2.45277C2.25597 3.1152 2.09277 2.952 2.09277 2.7552C2.09277 2.5584 2.25597 2.3952 2.45277 2.3952H13.92C14.1168 2.3952 14.28 2.5584 14.28 2.7552C14.28 2.952 14.1168 3.1152 13.92 3.1152Z" fill="#333F47"/>
<path d="M13.92 5.8896H2.45277C2.25597 5.8896 2.09277 5.7264 2.09277 5.5296C2.09277 5.3328 2.25597 5.1696 2.45277 5.1696H13.92C14.1168 5.1696 14.28 5.3328 14.28 5.5296C14.28 5.7264 14.1168 5.8896 13.92 5.8896Z" fill="#333F47"/>
<path d="M13.92 8.448H2.45277C2.25597 8.448 2.09277 8.2848 2.09277 8.088C2.09277 7.8912 2.25597 7.728 2.45277 7.728H13.92C14.1168 7.728 14.28 7.8912 14.28 8.088C14.28 8.2848 14.1168 8.448 13.92 8.448Z" fill="#333F47"/>
<path d="M10.0656 11.112H2.45277C2.25597 11.112 2.09277 10.9488 2.09277 10.752C2.09277 10.5552 2.25597 10.392 2.45277 10.392H10.0656C10.2624 10.392 10.4256 10.5552 10.4256 10.752C10.4256 10.9488 10.2624 11.112 10.0656 11.112Z" fill="#333F47"/>
<path d="M8.17438 13.7808H2.45277C2.25597 13.7808 2.09277 13.6176 2.09277 13.4208C2.09277 13.224 2.25597 13.0608 2.45277 13.0608H8.17438C8.37118 13.0608 8.53438 13.224 8.53438 13.4208C8.53438 13.6176 8.37598 13.7808 8.17438 13.7808Z" fill="#333F47"/>
<path d="M8.17438 20.448H2.45277C2.25597 20.448 2.09277 20.2848 2.09277 20.088C2.09277 19.8912 2.25597 19.728 2.45277 19.728H8.17438C8.37118 19.728 8.53438 19.8912 8.53438 20.088C8.53438 20.2848 8.37598 20.448 8.17438 20.448Z" fill="#333F47"/>
<path d="M23.0592 15.5472C22.2624 12.8208 19.7472 10.8288 16.7616 10.8288C16.728 10.8288 16.6896 10.8288 16.656 10.8288V2.5152C16.656 1.1376 15.5423 0.024 14.1647 0.024H2.48158C1.10398 0.024 -0.00964355 1.1376 -0.00964355 2.5152V21.4896C-0.00964355 22.8672 1.10398 23.9808 2.48158 23.9808H14.16C14.2368 23.9808 14.3184 23.976 14.3952 23.9712H20.6207C21.3023 23.9712 21.8592 23.4192 21.8592 22.7328C21.8592 22.4064 21.7344 22.1136 21.528 21.8928C22.224 21.1584 22.752 20.2608 23.0496 19.2624C23.592 19.0992 23.9904 18.5952 23.9904 18V16.8048C23.9856 16.2144 23.5968 15.7152 23.0592 15.5472ZM2.47675 23.1504C1.56475 23.1504 0.820747 22.4064 0.820747 21.4944V2.52C0.820747 1.608 1.56475 0.864 2.47675 0.864H14.16C15.072 0.864 15.816 1.608 15.816 2.52V10.896C13.2672 11.2608 11.1935 13.0944 10.4687 15.5088C9.84475 15.6144 9.36958 16.152 9.36958 16.8096V18.0048C9.36958 18.6624 9.84956 19.2048 10.4784 19.3056C10.7808 20.2992 11.3136 21.192 12.0144 21.9216C11.8224 22.1376 11.7072 22.4208 11.7072 22.7328C11.7072 22.8768 11.7312 23.016 11.7792 23.1456H2.47675V23.1504ZM20.6207 23.136H12.9456C12.7248 23.136 12.5424 22.9536 12.5424 22.7328C12.5424 22.6416 12.5759 22.5552 12.6287 22.488C12.7007 22.392 12.816 22.3344 12.9456 22.3344H20.6207C20.7359 22.3344 20.8416 22.3824 20.9184 22.464C20.9856 22.536 21.024 22.632 21.024 22.7376C21.024 22.9584 20.8463 23.136 20.6207 23.136ZM12.3456 18.1344C12.3456 16.0224 13.8335 14.2512 15.8207 13.8192C16.0895 13.7616 16.368 13.728 16.656 13.7184C16.6896 13.7184 16.728 13.7184 16.7616 13.7184C19.1952 13.7184 21.1776 15.7008 21.1776 18.1344C21.1776 19.4832 20.5728 20.688 19.6176 21.4992H13.9104C12.9504 20.688 12.3456 19.4784 12.3456 18.1344ZM20.9712 21.2688C21.624 20.3952 22.008 19.3104 22.008 18.1344C22.008 15.2352 19.656 12.888 16.7616 12.888C16.728 12.888 16.6896 12.888 16.656 12.888C16.3728 12.8928 16.0943 12.9216 15.8207 12.9696C13.3727 13.4112 11.5104 15.5568 11.5104 18.1344C11.5104 19.3104 11.8944 20.3952 12.5472 21.2688C11.6064 20.2464 11.0304 18.8832 11.0304 17.3904C11.0304 14.5536 13.104 12.192 15.816 11.7408C16.0896 11.6928 16.368 11.6688 16.6512 11.664C16.6848 11.664 16.7231 11.664 16.7567 11.664C19.9151 11.664 22.4832 14.232 22.4832 17.3904C22.488 18.8832 21.912 20.2464 20.9712 21.2688Z" fill="#333F47"/>
</g>
<defs>
<clipPath id="clip0_1_10866">
<rect width="24" height="24" fill="white"/>
</clipPath>
</defs>
</svg>
