<svg width="9" height="8" viewBox="0 0 9 8" fill="none" xmlns="http://www.w3.org/2000/svg">
<g clip-path="url(#clip0_1_10825)">
<path d="M7.25 3.66668V1.66668C7.25 1.30001 6.95 1.00001 6.58333 1.00001H6.25V0.666677C6.25 0.483343 6.1 0.333344 5.91667 0.333344C5.73333 0.333344 5.58333 0.483343 5.58333 0.666677V1.00001H2.91667V0.666677C2.91667 0.483343 2.76667 0.333344 2.58333 0.333344C2.4 0.333344 2.25 0.483343 2.25 0.666677V1.00001H1.91667C1.55 1.00001 1.25 1.30001 1.25 1.66668V6.33334C1.25 6.70001 1.55 7.00001 1.91667 7.00001H4.25V6.33334H1.91667V3.00001H6.58333V3.66668H7.25ZM5.29333 6.33334C5.11 6.33334 4.99 6.52001 5.06667 6.68668C5.32667 7.26334 5.90667 7.66668 6.58333 7.66668C7.50333 7.66668 8.25 6.92001 8.25 6.00001C8.25 5.08001 7.50333 4.33334 6.58333 4.33334C6.13 4.33334 5.71667 4.51668 5.41667 4.81001V4.58334C5.41667 4.44668 5.30333 4.33334 5.16667 4.33334C5.03 4.33334 4.91667 4.44668 4.91667 4.58334V5.33334C4.91667 5.51668 5.06667 5.66668 5.25 5.66668H6C6.13667 5.66668 6.25 5.55334 6.25 5.41668C6.25 5.28001 6.13667 5.16668 6 5.16668H5.76667C5.97667 4.96001 6.26667 4.83334 6.58333 4.83334C7.22667 4.83334 7.75 5.35668 7.75 6.00001C7.75 6.64334 7.22667 7.16668 6.58333 7.16668C6.11 7.16668 5.70333 6.88334 5.52 6.48001C5.48 6.39001 5.39 6.33334 5.29333 6.33334Z" fill="white"/>
</g>
<defs>
<clipPath id="clip0_1_10825">
<rect width="8" height="8" fill="white" transform="translate(0.75)"/>
</clipPath>
</defs>
</svg>
