<svg width="101" height="100" viewBox="0 0 101 100" fill="none" xmlns="http://www.w3.org/2000/svg">
<path opacity="0.5" fill-rule="evenodd" clip-rule="evenodd" d="M47.3195 99.9785C36.1225 99.599 18.5408 99.9785 7.64286 87.8532C0.545381 79.9564 0.142863 65.7113 7.68686 55.8822C8.21367 45.7232 15.6921 38.3077 21.7291 30.1455C29.527 19.6027 34.7228 5.78463 47.3195 2.29806C62.6129 -1.93489 81.4018 -0.948847 92.3437 10.6005C103.193 22.0525 101.082 40.3538 98.0855 55.8822C95.6697 68.3997 91.1666 79.5186 81.5714 87.8532C72.8557 95.4238 58.8294 100.368 47.3195 99.9785Z" fill="#F7D4D4"/>
<ellipse cx="50.5" cy="49.9978" rx="42.8571" ry="42.8552" fill="#D62926"/>
<g clip-path="url(#clip0_2385_939)">
<path d="M58.3598 47.8829L66.9894 32.9365C68.0484 31.1023 67.42 28.757 65.5854 27.6969L62.2635 25.7791C60.4293 24.7202 58.0839 25.3486 57.0237 27.183L48.394 42.1294L33.447 33.5001C31.6128 32.4412 29.2673 33.0696 28.2072 34.9041L26.2893 38.2258C25.2303 40.0599 25.8587 42.4053 27.6933 43.4654L42.6403 52.0947L34.0106 67.0411C32.9517 68.8752 33.5801 71.2205 35.4146 72.2807L38.7365 74.1985C40.5708 75.2574 42.9174 74.6287 43.9764 72.7945L52.606 57.8481L67.5531 66.4774C69.3873 67.5364 71.7339 66.9076 72.7929 65.0735L74.7108 61.7517C75.7698 59.9176 75.1414 57.5723 73.3068 56.5122L58.3598 47.8829Z" fill="#F5F8FA"/>
</g>
<path opacity="0.5" fill-rule="evenodd" clip-rule="evenodd" d="M88.4107 88.4817C89.8827 87.484 92.0492 86.1876 93.7981 86.5015C95.6592 86.8355 96.8649 88.883 97.0978 90.7577C97.2986 92.3745 95.9055 93.591 94.8312 94.8191C93.9792 95.7932 93.0283 96.6173 91.7576 96.8626C90.2389 97.1557 88.5321 97.2962 87.3915 96.2551C86.1686 95.1387 85.5926 93.2836 86.1133 91.7102C86.5773 90.3081 87.1871 89.3111 88.4107 88.4817Z" fill="#F7D4D4"/>
<path opacity="0.5" fill-rule="evenodd" clip-rule="evenodd" d="M0.553501 11.8944C0.772927 8.05244 3.14411 4.99043 6.62666 3.46066C11.9361 1.1284 18.8746 -2.39005 22.2892 2.34659C25.7122 7.09493 20.124 12.5827 16.5316 17.2005C13.5777 20.9975 9.98688 25.4918 5.45436 23.9866C0.938946 22.4871 0.278796 16.7043 0.553501 11.8944Z" fill="#F7D4D4"/>
<defs>
<clipPath id="clip0_2385_939">
<rect width="57.1427" height="57.1405" fill="white" transform="matrix(0.965929 -0.258808 0.25883 0.965923 15.5073 29.7867)"/>
</clipPath>
</defs>
</svg>
