<svg width="24" height="24" viewBox="0 0 24 24" fill="none" xmlns="http://www.w3.org/2000/svg">
<g clip-path="url(#clip0_1_10845)">
<path d="M2.62573 10.0368C2.62573 4.776 6.89293 0.508804 12.1537 0.508804C17.4145 0.508804 21.6817 4.776 21.6817 10.0368C21.6817 15.2976 17.4145 19.5648 12.1537 19.5648C6.89293 19.5648 2.62573 15.2976 2.62573 10.0368Z" fill="#08A94C"/>
<path d="M12.1537 1.0032C14.5681 1.0032 16.8385 1.944 18.5425 3.648C20.2513 5.3568 21.1873 7.62241 21.1873 10.0368C21.1873 12.4512 20.2465 14.7216 18.5425 16.4256C16.8337 18.1344 14.5681 19.0704 12.1537 19.0704C9.73932 19.0704 7.46889 18.1296 5.76489 16.4256C4.05609 14.7168 3.12011 12.4512 3.12011 10.0368C3.12011 7.62241 4.06089 5.352 5.76489 3.648C7.46889 1.944 9.73932 1.0032 12.1537 1.0032ZM12.1537 0.0191956C6.61932 0.0191956 2.13611 4.50721 2.13611 10.0368C2.13611 15.5712 6.62412 20.0544 12.1537 20.0544C17.6881 20.0544 22.1713 15.5664 22.1713 10.0368C22.1761 4.50241 17.6881 0.0191956 12.1537 0.0191956Z" fill="#333F47"/>
<path d="M9.97444 18.3744C5.99524 17.1696 3.74885 12.9696 4.95365 8.9904C6.15845 5.0112 10.3584 2.7648 14.3328 3.9696C18.312 5.1744 20.5585 9.3744 19.3537 13.3536C18.1537 17.3328 13.9536 19.5792 9.97444 18.3744Z" fill="#333F47"/>
<path d="M12.1537 4.1424C14.0305 4.1424 15.7969 4.872 17.1265 6.2016C18.4561 7.5312 19.1857 9.2976 19.1857 11.1744C19.1857 13.0512 18.4561 14.8176 17.1265 16.1472C15.7969 17.4768 14.0305 18.2064 12.1537 18.2064C10.2769 18.2064 8.51047 17.4768 7.18087 16.1472C5.85127 14.8176 5.1217 13.0512 5.1217 11.1744C5.1217 9.2976 5.85127 7.5312 7.18087 6.2016C8.51047 4.872 10.2769 4.1424 12.1537 4.1424ZM12.1537 3.1584C7.7281 3.1584 4.1377 6.7488 4.1377 11.1744C4.1377 15.6 7.7281 19.1904 12.1537 19.1904C16.5793 19.1904 20.1697 15.6 20.1697 11.1744C20.1697 6.7488 16.5841 3.1584 12.1537 3.1584Z" fill="#333F47"/>
<path d="M7.45443 8.496C7.37283 8.496 7.29123 8.472 7.21443 8.424C7.01283 8.2944 6.95522 8.0208 7.08482 7.8192C8.21762 6.072 10.1376 5.0304 12.216 5.0304C12.456 5.0304 12.6528 5.2272 12.6528 5.4672C12.6528 5.7072 12.456 5.904 12.216 5.904C10.4352 5.904 8.79366 6.7968 7.81926 8.2944C7.74246 8.4288 7.59843 8.496 7.45443 8.496Z" fill="#D2DFE8"/>
<path d="M6.54249 11.5872C6.30249 11.5872 6.10571 11.3904 6.10571 11.1504C6.10571 10.3824 6.24492 9.63359 6.52332 8.92319C6.60972 8.69759 6.86411 8.5872 7.08971 8.6736C7.31531 8.76 7.42572 9.0144 7.33932 9.24C7.09932 9.8496 6.97932 10.488 6.97932 11.1504C6.97932 11.3904 6.78729 11.5872 6.54249 11.5872Z" fill="#D2DFE8"/>
<path d="M5.90399 19.5984C5.37119 19.5984 4.93921 19.1664 4.93921 18.6336V17.7696C4.93921 17.2368 5.37119 16.8048 5.90399 16.8048H18.4848C19.0176 16.8048 19.4496 17.2368 19.4496 17.7696V18.6336C19.4496 19.1664 19.0176 19.5984 18.4848 19.5984H5.90399Z" fill="#08A94C"/>
<path d="M18.4848 17.2992C18.7488 17.2992 18.96 17.5104 18.96 17.7744V18.6384C18.96 18.9024 18.7488 19.1136 18.4848 19.1136H5.90404C5.64004 19.1136 5.42882 18.9024 5.42882 18.6384V17.7744C5.42882 17.5104 5.64004 17.2992 5.90404 17.2992H18.4848ZM18.4848 16.3152H5.90404C5.09764 16.3152 4.44482 16.968 4.44482 17.7744V18.6384C4.44482 19.4448 5.09764 20.0976 5.90404 20.0976H18.4848C19.2912 20.0976 19.944 19.4448 19.944 18.6384V17.7744C19.944 16.968 19.2912 16.3152 18.4848 16.3152Z" fill="#333F47"/>
<path d="M2.42882 12.4944C1.84322 12.4944 1.36804 12.0192 1.36804 11.4336V8.6928C1.36804 8.1072 1.84322 7.632 2.42882 7.632H2.66404V12.4992L2.42882 12.4944Z" fill="#333F47"/>
<path d="M2.16966 8.184V11.9472C1.98246 11.8512 1.85766 11.6592 1.85766 11.4384V8.6976C1.85766 8.4672 1.98726 8.2752 2.16966 8.184ZM3.15366 7.1376H2.42883C1.56963 7.1376 0.873657 7.8336 0.873657 8.6928V11.4384C0.873657 12.2976 1.56963 12.9936 2.42883 12.9936H3.15366V7.1376Z" fill="#333F47"/>
<path d="M21.4033 12.4944V7.632H21.6385C22.2241 7.632 22.6993 8.1072 22.6993 8.6928V11.4384C22.6993 12.024 22.2241 12.4992 21.6385 12.4992L21.4033 12.4944Z" fill="#333F47"/>
<path d="M21.8977 8.184C22.0849 8.28 22.2097 8.472 22.2097 8.6928V11.4384C22.2097 11.6592 22.0801 11.856 21.8977 11.9472V8.184ZM21.6385 7.1376H20.9137V12.9888H21.6385C22.4977 12.9888 23.1937 12.2928 23.1937 11.4336V8.688C23.1937 7.8336 22.4977 7.1376 21.6385 7.1376Z" fill="#333F47"/>
<path d="M15.5713 16.2624C14.1553 15.7536 13.0513 14.6496 12.5473 13.2288C12.1009 11.9712 12.1681 10.6128 12.7393 9.4032C13.3105 8.1984 14.3232 7.28639 15.5808 6.83519C16.6704 6.44639 17.8657 6.4512 18.9457 6.84C20.3617 7.3488 21.4657 8.4528 21.9697 9.8736C22.4161 11.1312 22.3489 12.4896 21.7777 13.6992C21.2065 14.904 20.1937 15.816 18.9361 16.2672C17.8513 16.6512 16.6561 16.6512 15.5713 16.2624Z" fill="#E8ECF5"/>
<path d="M18.7584 7.37759C20.016 7.82879 20.9904 8.80799 21.4368 10.0656C22.2576 12.3696 21.048 14.9136 18.744 15.7344C17.7792 16.08 16.7184 16.0752 15.7584 15.7296C14.5008 15.2784 13.5264 14.2992 13.08 13.0416C12.6816 11.9232 12.744 10.7184 13.2528 9.64799C13.7616 8.57759 14.6544 7.7712 15.7728 7.3728C16.7376 7.0272 17.7984 7.03199 18.7584 7.37759ZM19.1424 6.31199C17.9712 5.88959 16.6561 5.85599 15.3937 6.30719C12.4945 7.33919 10.9824 10.5216 12.0144 13.416C12.5952 15.0528 13.8625 16.2432 15.3793 16.7904C16.5457 17.2128 17.8656 17.2464 19.128 16.7952C22.0272 15.7632 23.5393 12.5808 22.5073 9.68159C21.9265 8.04959 20.6592 6.85919 19.1424 6.31199Z" fill="#333F47"/>
<path d="M19.0273 16.5168L20.0449 19.3104L19.0273 16.5168Z" fill="#D2DFE8"/>
<path d="M20.0448 19.7424C19.8672 19.7424 19.6993 19.632 19.6321 19.4544L18.6145 16.6608C18.5329 16.4352 18.6481 16.1808 18.8737 16.0992C19.0993 16.0176 19.3537 16.1328 19.4353 16.3584L20.4528 19.152C20.5344 19.3776 20.4193 19.632 20.1937 19.7136C20.1457 19.7328 20.0928 19.7424 20.0448 19.7424Z" fill="#333F47"/>
<path d="M20.5921 23.4288C20.4817 23.3904 20.3953 23.304 20.3569 23.1936L19.0273 19.4496C18.9937 19.3536 18.9985 19.248 19.0417 19.152C19.0849 19.0608 19.1617 18.9888 19.2625 18.9552L20.3089 18.5856C20.4193 18.5472 20.5105 18.5664 20.5681 18.5856C20.6785 18.624 20.7649 18.7104 20.8033 18.8208L22.1329 22.5648C22.1665 22.6608 22.1617 22.7664 22.1185 22.8624C22.0753 22.9536 21.9985 23.0256 21.8977 23.0592L20.8513 23.4288C20.7457 23.472 20.6545 23.4528 20.5921 23.4288Z" fill="#08A94C"/>
<path d="M20.3329 19.1808L21.5473 22.5888L20.8369 22.8432L19.6225 19.4352L20.3329 19.1808ZM20.7601 18.0528C20.5585 17.9808 20.3329 17.976 20.1169 18.0528L19.0705 18.4224C18.5761 18.6 18.3169 19.1424 18.4945 19.6416L19.8241 23.3856C19.9249 23.664 20.1409 23.8704 20.4001 23.9616C20.6017 24.0336 20.8273 24.0384 21.0433 23.9616L22.0897 23.592C22.5841 23.4144 22.8433 22.872 22.6657 22.3728L21.3361 18.6288C21.2353 18.3504 21.0193 18.1488 20.7601 18.0528Z" fill="#333F47"/>
</g>
<defs>
<clipPath id="clip0_1_10845">
<rect width="24" height="24" fill="white"/>
</clipPath>
</defs>
</svg>
