<svg width="24" height="24" viewBox="0 0 24 24" fill="none" xmlns="http://www.w3.org/2000/svg">
<g clip-path="url(#clip0_1_10872)">
<path d="M14.8945 21.1839C17.9349 18.1435 17.935 13.214 14.8945 10.1735C11.8541 7.13309 6.92455 7.1331 3.88411 10.1735C0.843674 13.214 0.843674 18.1435 3.88411 21.1839C6.92455 24.2244 11.8541 24.2244 14.8945 21.1839Z" fill="#08A94C"/>
<path d="M9.39369 8.4192C13.3969 8.4192 16.6513 11.6736 16.6513 15.6768C16.6513 19.68 13.3969 22.9344 9.39369 22.9344C5.39049 22.9344 2.13608 19.68 2.13608 15.6768C2.13608 11.6736 5.39529 8.4192 9.39369 8.4192ZM9.39369 7.3632C4.80009 7.3632 1.08008 11.0832 1.08008 15.6768C1.08008 20.2704 4.80009 23.9904 9.39369 23.9904C13.9873 23.9904 17.7073 20.2704 17.7073 15.6768C17.7073 11.0832 13.9873 7.3632 9.39369 7.3632Z" fill="#333F47"/>
<path d="M11.7496 22.2759C14.8748 20.9814 16.3589 17.3985 15.0643 14.2733C13.7698 11.148 10.1869 9.66397 7.06168 10.9585C3.93647 12.253 2.45238 15.836 3.74692 18.9612C5.04145 22.0864 8.62438 23.5704 11.7496 22.2759Z" fill="#333F47"/>
<path d="M9.39367 11.0256C12.4801 11.0256 14.9905 13.536 14.9905 16.6224C14.9905 19.7088 12.4801 22.2192 9.39367 22.2192C6.30727 22.2192 3.79684 19.7088 3.79684 16.6224C3.79684 13.536 6.31207 11.0256 9.39367 11.0256ZM9.39367 9.96961C5.72167 9.96961 2.74084 12.9456 2.74084 16.6224C2.74084 20.2944 5.71687 23.2752 9.39367 23.2752C13.0657 23.2752 16.0465 20.2992 16.0465 16.6224C16.0465 12.9456 13.0705 9.96961 9.39367 9.96961Z" fill="#333F47"/>
<path d="M5.49606 14.3856C5.42886 14.3856 5.36166 14.3664 5.30406 14.328C5.14086 14.2224 5.09285 14.0016 5.19845 13.8432C6.13925 12.3984 7.72805 11.5344 9.44645 11.5344C9.64325 11.5344 9.79684 11.6928 9.79684 11.8848C9.79684 12.0816 9.63845 12.2352 9.44645 12.2352C7.96325 12.2352 6.59524 12.9792 5.78884 14.2224C5.72164 14.3328 5.61126 14.3856 5.49606 14.3856Z" fill="#E8ECF5"/>
<path d="M4.7376 16.9536C4.5408 16.9536 4.38721 16.7952 4.38721 16.6032C4.38721 15.9648 4.50237 15.3456 4.73277 14.76C4.80477 14.5776 5.00637 14.4912 5.18877 14.5584C5.37117 14.6304 5.45758 14.832 5.39038 15.0144C5.19358 15.5184 5.09277 16.056 5.09277 16.6032C5.08797 16.7952 4.9296 16.9536 4.7376 16.9536Z" fill="#E8ECF5"/>
<path d="M4.56474 23.4912C3.99354 23.4912 3.52795 23.0256 3.52795 22.4544C3.52795 21.8832 3.99354 21.4176 4.56474 21.4176H14.2896C14.8608 21.4176 15.3263 21.8832 15.3263 22.4544C15.3263 23.0256 14.8608 23.4912 14.2896 23.4912H4.56474Z" fill="#08A94C"/>
<path d="M14.2896 21.9408C14.5728 21.9408 14.7984 22.1712 14.7984 22.4496C14.7984 22.7328 14.568 22.9584 14.2896 22.9584H4.56478C4.28158 22.9584 4.056 22.728 4.056 22.4496C4.056 22.1664 4.28638 21.9408 4.56478 21.9408H14.2896ZM14.2896 20.8848H4.56478C3.70078 20.8848 3 21.5856 3 22.4496C3 23.3136 3.70078 24.0144 4.56478 24.0144H14.2896C15.1536 24.0144 15.8544 23.3136 15.8544 22.4496C15.8592 21.5856 15.1536 20.8848 14.2896 20.8848Z" fill="#333F47"/>
<path d="M1.39682 17.5536C0.916817 17.4192 0.561646 16.9776 0.561646 16.4544V14.9424C0.561646 14.4192 0.916817 13.9776 1.39682 13.8432V17.5536Z" fill="#333F47"/>
<path d="M1.92486 13.272H1.70408C0.782482 13.272 0.0336914 14.0208 0.0336914 14.9424V16.4544C0.0336914 17.376 0.782482 18.1248 1.70408 18.1248H1.92486V13.272Z" fill="#333F47"/>
<path d="M17.1887 13.8432C17.6687 13.9776 18.0239 14.4192 18.0239 14.9424V16.4544C18.0239 16.9776 17.6687 17.4192 17.1887 17.5536V13.8432Z" fill="#333F47"/>
<path d="M16.8816 13.272H16.6608V18.1248H16.8816C17.8032 18.1248 18.552 17.376 18.552 16.4544V14.9424C18.552 14.0208 17.808 13.272 16.8816 13.272Z" fill="#333F47"/>
<path d="M14.9568 10.3488C14.8752 10.2672 14.7648 10.224 14.6544 10.224H13.7184C13.0848 10.224 12.5664 9.7056 12.5664 9.072V1.59839C12.5664 0.964791 13.0848 0.446391 13.7184 0.446391H22.4352C23.0688 0.446391 23.5872 0.964791 23.5872 1.59839V9.072C23.5872 9.7056 23.0688 10.224 22.4352 10.224H18.1008C17.9856 10.224 17.88 10.2672 17.7984 10.3488L16.3776 11.7696L14.9568 10.3488Z" fill="#E8ECF5"/>
<path d="M22.44 0.878391C22.8384 0.878391 23.1648 1.2048 23.1648 1.6032V9.072C23.1648 9.4704 22.8384 9.79681 22.44 9.79681H18.1057C17.8801 9.79681 17.6592 9.88799 17.5008 10.0464L16.3824 11.1648L15.264 10.0464C15.1008 9.88319 14.8849 9.79681 14.6593 9.79681H13.7233C13.3249 9.79681 12.9984 9.4704 12.9984 9.072V1.59839C12.9984 1.19999 13.3249 0.873609 13.7233 0.873609H22.44M22.44 0.0191953H13.7233C12.8497 0.0191953 12.144 0.724791 12.144 1.59839V9.072C12.144 9.9456 12.8497 10.6512 13.7233 10.6512H14.6593L16.3824 12.3744L18.1057 10.6512H22.44C23.3136 10.6512 24.0193 9.9456 24.0193 9.072V1.59839C24.0193 0.724791 23.3088 0.0191953 22.44 0.0191953Z" fill="#333F47"/>
<path d="M16.1616 4.008C16.1616 3.7632 16.2384 3.5184 16.3968 3.2688C16.5504 3.0192 16.7808 2.81281 17.0784 2.64961C17.376 2.48641 17.7264 2.4048 18.1248 2.4048C18.4944 2.4048 18.8208 2.472 19.104 2.6112C19.3872 2.7456 19.608 2.9328 19.7616 3.168C19.9152 3.4032 19.992 3.6576 19.992 3.936C19.992 4.152 19.9488 4.344 19.8576 4.5072C19.7712 4.6704 19.6656 4.80961 19.5456 4.92961C19.4256 5.04961 19.2048 5.24641 18.8928 5.52961C18.8064 5.60641 18.7344 5.6784 18.6864 5.736C18.6336 5.7984 18.5952 5.8512 18.5712 5.8992C18.5472 5.9472 18.528 6 18.5136 6.048C18.4992 6.096 18.48 6.1872 18.4512 6.312C18.4032 6.576 18.2496 6.71039 17.9952 6.71039C17.8608 6.71039 17.7504 6.6672 17.6592 6.5808C17.568 6.4944 17.5248 6.3648 17.5248 6.192C17.5248 5.976 17.5584 5.7936 17.6256 5.6352C17.6928 5.4768 17.7792 5.34239 17.8896 5.22239C18 5.10239 18.1488 4.9632 18.336 4.8C18.4992 4.656 18.6192 4.55039 18.6912 4.47839C18.7632 4.40639 18.8256 4.32481 18.8736 4.23361C18.9216 4.14241 18.9504 4.0464 18.9504 3.9408C18.9504 3.7344 18.8736 3.56639 18.7248 3.42239C18.5712 3.28319 18.3792 3.2112 18.1392 3.2112C17.856 3.2112 17.6496 3.28319 17.52 3.42239C17.3856 3.56639 17.2752 3.77279 17.184 4.04639C17.0976 4.33439 16.9344 4.47839 16.6896 4.47839C16.5456 4.47839 16.4256 4.4304 16.3296 4.3248C16.2144 4.2384 16.1616 4.128 16.1616 4.008ZM18.0336 8.208C17.88 8.208 17.7408 8.15519 17.6256 8.05439C17.5104 7.95359 17.4528 7.8144 17.4528 7.632C17.4528 7.4688 17.5104 7.3344 17.6208 7.224C17.7312 7.1136 17.8704 7.0608 18.0336 7.0608C18.1968 7.0608 18.3312 7.1136 18.4416 7.224C18.552 7.3344 18.6048 7.4688 18.6048 7.632C18.6048 7.8096 18.5472 7.94879 18.432 8.05439C18.3168 8.15519 18.1824 8.208 18.0336 8.208Z" fill="#333F47"/>
</g>
<defs>
<clipPath id="clip0_1_10872">
<rect width="24" height="24" fill="white"/>
</clipPath>
</defs>
</svg>
