<svg width="101" height="100" viewBox="0 0 101 100" fill="none" xmlns="http://www.w3.org/2000/svg">
<path opacity="0.5" fill-rule="evenodd" clip-rule="evenodd" d="M47.3195 99.9785C36.1225 99.5991 18.5408 99.9785 7.64286 87.8532C0.545381 79.9564 0.142863 65.7114 7.68686 55.8822C8.21367 45.7232 15.6921 38.3077 21.7291 30.1455C29.527 19.6027 34.7228 5.78468 47.3195 2.29811C62.6129 -1.93484 81.4018 -0.948801 92.3437 10.6006C103.193 22.0526 101.082 40.3539 98.0855 55.8823C95.6697 68.3997 91.1666 79.5187 81.5714 87.8533C72.8557 95.4239 58.8294 100.369 47.3195 99.9785Z" fill="#CDE5F8"/>
<ellipse cx="50.5" cy="49.9978" rx="42.8571" ry="42.8552" fill="#047CDD"/>
<path d="M47.5391 68.4497L28.5847 57.5069C27.4459 56.8494 27.0558 55.3933 27.7132 54.2546L30.0941 50.1308C30.7515 48.992 32.2078 48.6018 33.3465 49.2594L46.1151 56.6309L61.905 29.2833C62.5625 28.1446 64.0187 27.7544 65.1575 28.4119L69.2813 30.7927C70.4201 31.4502 70.8103 32.9063 70.1528 34.045L50.7916 67.5783C50.134 68.7171 48.6779 69.1072 47.5391 68.4497Z" fill="#F5F8FA"/>
<path opacity="0.5" fill-rule="evenodd" clip-rule="evenodd" d="M88.4107 88.4817C89.8827 87.484 92.0492 86.1876 93.7981 86.5015C95.6592 86.8355 96.8649 88.883 97.0978 90.7577C97.2986 92.3745 95.9055 93.591 94.8312 94.8191C93.9792 95.7932 93.0283 96.6173 91.7576 96.8626C90.2389 97.1557 88.5321 97.2962 87.3915 96.2551C86.1686 95.1387 85.5926 93.2836 86.1133 91.7102C86.5773 90.3081 87.1871 89.3111 88.4107 88.4817Z" fill="#CDE5F8"/>
<path opacity="0.5" fill-rule="evenodd" clip-rule="evenodd" d="M0.553516 11.8944C0.772942 8.05244 3.14413 4.99043 6.62668 3.46066C11.9361 1.1284 18.8746 -2.39005 22.2892 2.34659C25.7122 7.09493 20.124 12.5827 16.5316 17.2005C13.5777 20.9975 9.9869 25.4918 5.45438 23.9866C0.938962 22.4871 0.278811 16.7043 0.553516 11.8944Z" fill="#CDE5F8"/>
</svg>
