<svg width="27" height="28" viewBox="0 0 27 28" fill="none" xmlns="http://www.w3.org/2000/svg">
<path opacity="0.5" d="M0.450012 17.0398C0.450012 12.213 0.450012 9.79888 1.95017 8.3C3.44905 6.79984 5.86313 6.79984 10.69 6.79984H15.81C20.6369 6.79984 23.051 6.79984 24.5499 8.3C26.05 9.79888 26.05 12.213 26.05 17.0398C26.05 21.8667 26.05 24.2808 24.5499 25.7797C23.051 27.2798 20.6369 27.2798 15.81 27.2798H10.69C5.86313 27.2798 3.44905 27.2798 1.95017 25.7797C0.450012 24.2808 0.450012 21.8667 0.450012 17.0398Z" fill="white"/>
<path d="M13.1835 0.719971C12.0328 0.719971 11.074 0.719971 10.3137 0.822371C9.50988 0.929891 8.78412 1.16797 8.20172 1.75037C7.61804 2.33405 7.37996 3.05981 7.27244 3.86237C7.17004 4.62397 7.17004 5.58397 7.17004 6.73341V6.79997H9.09004C9.09004 5.56605 9.0926 4.73661 9.1758 4.11837C9.25516 3.52829 9.39212 3.27485 9.5598 3.10845C9.7262 2.94205 9.97836 2.80509 10.5684 2.72445C11.1867 2.64253 12.0161 2.63997 13.25 2.63997C14.484 2.63997 15.3134 2.64253 15.9316 2.72573C16.5217 2.80509 16.7752 2.94205 16.9416 3.10973C17.108 3.27613 17.2449 3.52829 17.3256 4.11837C17.4075 4.73661 17.41 5.56605 17.41 6.79997H19.33V6.73341C19.33 5.58397 19.33 4.62397 19.2276 3.86365C19.1201 3.05981 18.882 2.33405 18.2984 1.75165C17.716 1.16797 16.9902 0.929891 16.1864 0.822371C15.426 0.719971 14.466 0.719971 13.3166 0.719971H13.1835ZM10.69 18.32H5.57004C4.96716 18.32 4.66508 18.32 4.47692 18.5069C4.29004 18.695 4.29004 18.9984 4.29004 19.6V20.88C4.29004 21.4829 4.29004 21.7849 4.47692 21.9731C4.66508 22.16 4.96844 22.16 5.57004 22.16H10.69C11.2929 22.16 11.595 22.16 11.7832 21.9731C11.97 21.7849 11.97 21.4816 11.97 20.88V19.6C11.97 18.9971 11.97 18.695 11.7832 18.5069C11.595 18.32 11.2916 18.32 10.69 18.32Z" fill="white"/>
<path d="M4.61029 27.0202C5.17221 27.1214 5.80709 27.1828 6.53029 27.2199V22.1601H5.57029C5.09157 22.1601 4.80229 22.1601 4.61029 22.0666V27.0202ZM4.61029 18.4135V7.05991C5.17221 6.95879 5.80709 6.89735 6.53029 6.86023V18.3201H5.57029C5.09157 18.3201 4.80229 18.3201 4.61029 18.4135ZM19.9703 27.2199C20.6138 27.1928 21.255 27.1262 21.8903 27.0202V7.05991C21.255 6.95392 20.6138 6.88724 19.9703 6.86023V27.2199Z" fill="white"/>
</svg>
