<svg width="24" height="24" viewBox="0 0 24 24" fill="none" xmlns="http://www.w3.org/2000/svg">
<g clip-path="url(#clip0_1_10857)">
<path d="M13.9343 12.1056C13.9343 12.1056 13.5552 16.2624 12.5712 19.1328H3.05754C2.71194 18.1248 2.43835 16.9536 2.22715 15.8592C1.84315 13.8336 1.67993 12.072 1.67993 12.072C1.67993 6.77761 4.30554 3.05281 6.12954 1.10881C7.05114 0.124812 8.61593 0.129602 9.52793 1.1232C11.3375 3.0768 13.9343 6.81122 13.9343 12.1056Z" fill="#08A94C"/>
<path d="M12.8256 19.488H2.80796L2.72635 19.248C2.41435 18.3456 2.13115 17.2272 1.88635 15.9216C1.50235 13.9056 1.33915 12.12 1.33435 12.1008V12.0672C1.33435 9.66719 1.86234 7.34399 2.90874 5.17439C3.66234 3.60959 4.66078 2.15999 5.87518 0.859194C6.37918 0.321594 7.08954 0.014389 7.82874 0.014389C7.83354 0.014389 7.83355 0.014389 7.83835 0.014389C8.57755 0.019189 9.29276 0.331208 9.79196 0.873608C10.9968 2.17921 11.9808 3.63359 12.7296 5.20319C13.7616 7.37759 14.2896 9.7008 14.2896 12.1008V12.1344C14.2752 12.3072 13.8912 16.3632 12.9072 19.2432L12.8256 19.488ZM3.31674 18.7776H12.3167C13.1855 16.08 13.5552 12.36 13.5792 12.0864C13.5744 6.81119 10.8768 3.10079 9.27357 1.35839C8.89917 0.955189 8.39035 0.729603 7.83835 0.724803C7.83355 0.724803 7.83354 0.724803 7.82874 0.724803C7.27674 0.724803 6.76797 0.945598 6.39357 1.344C4.77117 3.0768 2.04476 6.7728 2.03996 12.048C2.05916 12.2256 2.22235 13.9056 2.58235 15.7872C2.79835 16.9488 3.04794 17.952 3.31674 18.7776Z" fill="#333F47"/>
<path d="M12.5712 19.1328C12.0528 20.6544 11.3664 21.816 10.4784 21.816H7.77601V21.7824H5.13601C4.25761 21.7824 3.57122 20.6352 3.05762 19.1328H12.5712Z" fill="#333F47"/>
<path d="M10.4784 22.1712H7.42562V22.1376H5.14079C4.18559 22.1376 3.3936 21.192 2.7264 19.248L2.56323 18.7776H13.0656L12.9072 19.248C12.2352 21.216 11.4432 22.1712 10.4784 22.1712ZM8.13123 21.4608H10.4784C11.0112 21.4608 11.568 20.7648 12.0624 19.488H3.5664C4.0608 20.7456 4.61279 21.4272 5.14079 21.4272H8.13601V21.4608H8.13123Z" fill="#333F47"/>
<path d="M5.14071 21.7824L2.89915 23.088C2.51035 23.3136 2.01595 23.2368 1.72315 22.896L1.12315 22.2144C0.287947 21.2688 0.124737 19.9008 0.705537 18.7824L2.23671 15.8544C2.44311 16.9488 2.71675 18.12 3.06715 19.128C3.57595 20.6352 4.26231 21.7824 5.14071 21.7824Z" fill="#E8ECF5"/>
<path d="M2.42873 23.568C2.06873 23.568 1.70873 23.4144 1.45434 23.1312L0.854335 22.4496C-0.0720648 21.3984 -0.259274 19.8624 0.388726 18.6192L2.39034 14.784L2.58233 15.7872C2.82234 17.0592 3.09594 18.144 3.39833 19.0128C3.93114 20.568 4.55515 21.4224 5.14555 21.4224H6.45594L3.08155 23.3904C2.87515 23.5152 2.64953 23.568 2.42873 23.568ZM2.08316 16.9056L1.01755 18.9504C0.503954 19.9344 0.652763 21.1488 1.38716 21.984L1.98716 22.6656C2.16956 22.8768 2.48155 22.9248 2.72155 22.7856L4.30073 21.864C3.71033 21.456 3.18713 20.592 2.72634 19.248C2.49593 18.5808 2.27996 17.7984 2.08316 16.9056Z" fill="#333F47"/>
<path d="M10.632 21.7824L12.8736 23.088C13.2624 23.3136 13.7568 23.2368 14.0496 22.896L14.6496 22.2144C15.4848 21.2688 15.648 19.9008 15.0672 18.7824L13.536 15.8544C13.3296 16.9488 13.056 18.12 12.7056 19.128C12.1968 20.6352 11.5104 21.7824 10.632 21.7824Z" fill="#E8ECF5"/>
<path d="M13.3439 23.568C13.1231 23.568 12.8975 23.5104 12.6959 23.3904L9.32153 21.4224H10.6319C11.2223 21.4224 11.8415 20.568 12.3791 19.0128C12.6767 18.144 12.9551 17.0592 13.1951 15.7872L13.3871 14.784L15.3887 18.6192C16.0367 19.8576 15.8495 21.3984 14.9231 22.4496L14.3183 23.1312C14.0639 23.4192 13.7087 23.568 13.3439 23.568ZM11.4767 21.864L13.0559 22.7808C13.2959 22.92 13.6031 22.872 13.7903 22.6608L14.3951 21.9792C15.1295 21.1488 15.2735 19.9296 14.7647 18.9456L13.6991 16.9008C13.5023 17.7888 13.2863 18.576 13.0607 19.2432C12.5855 20.592 12.0671 21.456 11.4767 21.864Z" fill="#333F47"/>
<path d="M7.81431 11.4288C9.1504 11.4288 10.2335 10.3457 10.2335 9.00961C10.2335 7.67352 9.1504 6.59039 7.81431 6.59039C6.47823 6.59039 5.39514 7.67352 5.39514 9.00961C5.39514 10.3457 6.47823 11.4288 7.81431 11.4288Z" fill="#E8ECF5"/>
<path d="M7.81431 11.7792C6.28791 11.7792 5.03992 10.536 5.03992 9.0048C5.03992 7.4736 6.28311 6.23039 7.81431 6.23039C9.34071 6.23039 10.5887 7.4736 10.5887 9.0048C10.5887 10.536 9.34551 11.7792 7.81431 11.7792ZM7.81431 6.94561C6.67671 6.94561 5.75031 7.87201 5.75031 9.00961C5.75031 10.1472 6.67671 11.0736 7.81431 11.0736C8.95191 11.0736 9.87831 10.1472 9.87831 9.00961C9.87831 7.87201 8.95191 6.94561 7.81431 6.94561Z" fill="#333F47"/>
<path d="M12.696 23.6496C12.4656 23.5968 12.2496 23.496 12.0576 23.3616C12.1584 23.184 12.2064 22.9824 12.192 22.7712C12.1728 22.4976 12.048 22.248 11.8368 22.0656L11.5968 21.8592C11.472 21.7488 11.3184 21.672 11.1552 21.6336C10.8432 21.5616 10.5216 21.6384 10.2816 21.8352L9.20159 20.904C9.30719 20.7264 9.35516 20.52 9.34076 20.3088C9.32156 20.0352 9.19679 19.7856 8.98559 19.6032L8.74559 19.3968C8.62079 19.2864 8.46718 19.2096 8.30398 19.1712C7.99198 19.0992 7.67517 19.176 7.43037 19.368C6.76797 18.7104 6.7152 17.6352 7.3392 16.9152L16.0992 6.7872C16.536 6.2832 17.2128 6.0576 17.8656 6.2112C18.1056 6.264 18.3312 6.36959 18.528 6.51839C18.3552 6.74879 18.2736 7.0272 18.2976 7.3152C18.3216 7.632 18.4656 7.91999 18.7056 8.12639C18.8496 8.25119 19.0272 8.34241 19.2144 8.38561C19.6176 8.47681 20.04 8.3568 20.328 8.064L21.384 8.976C21.2112 9.2064 21.1248 9.48481 21.1488 9.77761C21.1728 10.0944 21.3168 10.3824 21.5568 10.5888C21.7008 10.7136 21.8784 10.8048 22.0656 10.848C22.4688 10.9392 22.8816 10.8192 23.1696 10.5312C23.7936 11.1936 23.8272 12.24 23.2224 12.9408L14.4624 23.0688C14.0256 23.5776 13.3488 23.7984 12.696 23.6496Z" fill="#E8ECF5"/>
<path d="M17.7984 6.52319C17.904 6.54719 18 6.58079 18.096 6.62399C18 6.84479 17.9616 7.0848 17.976 7.3296C18.0048 7.7328 18.192 8.0976 18.4944 8.3616C18.6816 8.52 18.9024 8.6352 19.1424 8.6928C19.5552 8.7888 19.9776 8.7072 20.3232 8.4768L20.9664 9.0336C20.6832 9.6336 20.8176 10.3728 21.3456 10.824C21.5328 10.9824 21.7536 11.0976 21.9936 11.1552C22.3824 11.2464 22.7856 11.1792 23.112 10.9776C23.4432 11.5104 23.4096 12.2256 22.9776 12.7248L14.2176 22.8528C13.8576 23.2704 13.3008 23.448 12.768 23.328C12.6624 23.304 12.5616 23.2704 12.4656 23.2224C12.5088 23.0688 12.528 22.9104 12.5136 22.7424C12.4896 22.3824 12.3216 22.0512 12.048 21.816L11.808 21.6096C11.64 21.4656 11.4432 21.3648 11.2272 21.3168C10.9104 21.2448 10.5888 21.288 10.3104 21.4272L9.59519 20.8128C9.65279 20.6448 9.67676 20.4624 9.66236 20.28C9.63836 19.92 9.47035 19.5888 9.19675 19.3536L8.95675 19.1472C8.78875 19.0032 8.59197 18.9024 8.37597 18.8544C8.07357 18.7872 7.76638 18.8208 7.49758 18.9456C7.33918 18.7296 7.24795 18.4704 7.22875 18.1968C7.19995 17.8032 7.32477 17.424 7.58397 17.1264L16.344 6.99838C16.7088 6.58078 17.2656 6.40319 17.7984 6.52319ZM17.9424 5.89438C17.1984 5.72158 16.392 5.95679 15.8592 6.57599L7.09919 16.704C6.33119 17.592 6.42719 18.9312 7.31519 19.6992L7.34875 19.728C7.36795 19.7424 7.38716 19.752 7.40636 19.7568C7.45436 19.7664 7.50715 19.752 7.54075 19.7136C7.71835 19.5072 7.98717 19.4304 8.23197 19.488C8.34237 19.512 8.44316 19.5648 8.53436 19.6416L8.77436 19.848C9.06716 20.1024 9.10076 20.5488 8.84636 20.8416C8.79836 20.8992 8.80315 20.9856 8.86075 21.0336L10.1952 22.1904C10.2144 22.2048 10.2336 22.2144 10.2528 22.2192C10.3008 22.2288 10.3536 22.2144 10.3872 22.176C10.5648 21.9696 10.8336 21.8928 11.0784 21.9504C11.1888 21.9744 11.2896 22.0272 11.3808 22.104L11.6208 22.3104C11.9136 22.5648 11.9472 23.0112 11.6928 23.304C11.6448 23.3616 11.6496 23.448 11.7072 23.496C11.976 23.7312 12.2928 23.8848 12.6192 23.9568C13.3632 24.1296 14.1696 23.8944 14.7072 23.2752L23.4672 13.1472C24.2352 12.2592 24.1392 10.92 23.2512 10.152C23.232 10.1376 23.2128 10.128 23.1936 10.1232C23.1456 10.1136 23.0928 10.128 23.0592 10.1664L22.9872 10.248C22.7712 10.4976 22.44 10.5936 22.1376 10.5264C22.0032 10.4976 21.8784 10.4352 21.768 10.3392C21.408 10.0272 21.3696 9.47999 21.6816 9.11999L21.7536 9.03838C21.8016 8.98078 21.7968 8.89438 21.7392 8.84638L20.4048 7.6896C20.3856 7.6752 20.3664 7.6656 20.3472 7.6608C20.2992 7.6512 20.2464 7.66559 20.2128 7.70399L20.1408 7.7856C19.9248 8.0352 19.5936 8.13119 19.2912 8.06399C19.1568 8.03519 19.032 7.9728 18.9216 7.8768C18.5616 7.5648 18.5232 7.0176 18.8352 6.6576L18.9072 6.57599C18.9552 6.51839 18.9504 6.43199 18.8928 6.38399L18.8592 6.35519C18.5856 6.11999 18.2688 5.96638 17.9424 5.89438Z" fill="#333F47"/>
<path d="M15.1248 19.4208L10.8624 15.7344C10.7712 15.6576 10.632 15.6672 10.5552 15.7584L9.24963 17.2704C9.17283 17.3616 9.18243 17.5008 9.27363 17.5776L13.536 21.264C13.6272 21.3408 13.7664 21.3312 13.8432 21.24L15.1488 19.728C15.2256 19.6368 15.216 19.4976 15.1248 19.4208Z" fill="#333F47"/>
<path d="M13.56 21.6384C13.4784 21.6192 13.4016 21.5808 13.3392 21.5232L9.04324 17.808C8.82724 17.6208 8.80322 17.2896 8.99042 17.0736L10.3248 15.528C10.512 15.312 10.8432 15.288 11.0592 15.4752L15.3552 19.1904C15.4608 19.2816 15.5232 19.4064 15.5328 19.5456C15.5424 19.6848 15.4992 19.8192 15.408 19.9248L14.0736 21.4704C13.9392 21.6192 13.7424 21.6768 13.56 21.6384ZM9.56163 17.4048L13.6656 20.952L14.8368 19.5984L10.7328 16.0512L9.56163 17.4048Z" fill="#333F47"/>
<path d="M18.9504 15.5616C18.9024 15.552 18.8544 15.528 18.8112 15.4896L13.9824 11.3136C13.848 11.1984 13.8336 10.992 13.9488 10.8576C14.064 10.7232 14.2704 10.7088 14.4048 10.824L19.2336 15C19.368 15.1152 19.3824 15.3216 19.2672 15.456C19.1856 15.552 19.0608 15.5904 18.9504 15.5616Z" fill="#333F47"/>
<path d="M16.6896 16.3152C16.6416 16.3056 16.5936 16.2816 16.5504 16.2432L13.8 13.8672C13.6656 13.752 13.6512 13.5456 13.7664 13.4112C13.8816 13.2768 14.088 13.2624 14.2224 13.3776L16.9728 15.7536C17.1072 15.8688 17.1216 16.0752 17.0064 16.2096C16.9248 16.3056 16.8 16.344 16.6896 16.3152Z" fill="#333F47"/>
</g>
<defs>
<clipPath id="clip0_1_10857">
<rect width="24" height="24" fill="white"/>
</clipPath>
</defs>
</svg>
